PathFileType	4	(X/Y/Z)	output.trc
DataRate	CameraRate	NumFrames	NumMarkers	Units	OrigDataRate	OrigDataStartFrame	OrigNumFrames
30	30	16	17	m	30	137	1089
Frame#	Time	root		right_hip		right_knee		right_ankle		left_hip		left_knee		left_ankle		torso		thorax		neck		head		left_shoulder		left_elbow		left_wrist		right_shoulder		right_elbow		right_wrist
		X1	Y1	Z1	X2	Y2	Z2	X3	Y3	Z3	X4	Y4	Z4	X5	Y5	Z5	X6	Y6	Z6	X7	Y7	Z7	X8	Y8	Z8	X9	Y9	Z9	X10	Y10	Z10	X11	Y11	Z11	X12	Y12	Z12	X13	Y13	Z13	X14	Y14	Z14	X15	Y15	Z15	X16	Y16	Z16	X17	Y17	Z17

137.0	4.533333	0.000184	-0.000031	0.825592	-0.033715	0.092681	0.825462	-0.005805	0.109130	0.430549	-0.048277	0.192271	0.000000	0.033722	-0.092679	0.825750	0.076446	0.039069	0.444292	-0.076883	0.069259	0.026335	-0.019200	-0.028887	1.066009	-0.006424	-0.021410	1.336109	0.154001	-0.008480	1.445182	0.172319	0.007441	1.496494	0.008154	-0.111742	1.285990	-0.042860	-0.134927	1.020487	-0.022535	-0.103515	0.802415	-0.060341	0.069504	1.298743	-0.147671	0.146974	1.039375	-0.083861	0.183004	0.827420
138.0	4.566667	0.000182	-0.000030	0.838103	-0.034022	0.087379	0.834999	-0.006152	0.094254	0.437867	-0.055870	0.159617	0.000000	0.034024	-0.087379	0.841235	0.081679	0.036047	0.452877	-0.019443	0.058474	0.022643	-0.020867	-0.029552	1.074027	-0.008916	-0.023102	1.342738	0.161799	-0.004461	1.446874	0.179664	0.001826	1.496120	0.004920	-0.107078	1.288230	-0.051149	-0.127043	1.021445	-0.034766	-0.094851	0.803555	-0.060078	0.063605	1.302361	-0.138543	0.146243	1.045900	-0.088059	0.177904	0.834175
139.0	4.600000	0.000182	-0.000027	0.825369	-0.037714	0.088133	0.823562	-0.014077	0.094459	0.430836	-0.070286	0.164243	0.000000	0.037717	-0.088134	0.827206	0.086622	0.037834	0.443612	0.004062	0.056668	0.013926	-0.018006	-0.031370	1.063827	-0.002986	-0.024561	1.333271	0.168080	-0.011612	1.434239	0.189952	-0.009573	1.485804	0.010936	-0.110069	1.281462	-0.044686	-0.127758	1.015548	-0.034278	-0.091837	0.801376	-0.056903	0.065131	1.296143	-0.138505	0.157741	1.042881	-0.085890	0.197269	0.836150
140.0	4.633333	0.000181	-0.000028	0.833756	-0.037521	0.086738	0.830121	-0.017859	0.085216	0.437154	-0.082938	0.143828	0.000000	0.037521	-0.086740	0.837418	0.088987	0.032845	0.451000	0.010039	0.049937	0.018726	-0.021958	-0.031067	1.069046	-0.008160	-0.025102	1.337551	0.163637	-0.008737	1.440161	0.185669	-0.009763	1.487663	0.004995	-0.109374	1.282622	-0.053036	-0.132617	1.011703	-0.040558	-0.098935	0.801713	-0.061643	0.062636	1.296983	-0.139908	0.154540	1.044851	-0.102115	0.188980	0.835208
141.0	4.666667	0.000182	-0.000027	0.831034	-0.037124	0.085033	0.826290	-0.027462	0.086743	0.436574	-0.100042	0.148456	0.000000	0.037124	-0.085035	0.835808	0.072062	0.030910	0.445351	-0.005062	0.055329	0.016042	-0.025370	-0.031577	1.065763	-0.016585	-0.025886	1.333743	0.157697	-0.009944	1.437743	0.181165	-0.011920	1.483417	-0.002487	-0.107735	1.276989	-0.055828	-0.129149	1.005538	-0.041089	-0.092690	0.798700	-0.069974	0.062160	1.293742	-0.143972	0.159453	1.046373	-0.098099	0.199443	0.839183
142.0	4.700000	0.000180	-0.000027	0.826303	-0.040453	0.085244	0.822133	-0.031522	0.091263	0.435927	-0.118146	0.151223	0.000000	0.040455	-0.085245	0.830502	0.070293	0.038345	0.446007	-0.010812	0.058921	0.017270	-0.021880	-0.030513	1.061645	-0.011226	-0.025746	1.330484	0.157824	-0.009344	1.433441	0.181162	-0.014115	1.479042	0.005987	-0.109236	1.274860	-0.049851	-0.131872	1.005441	-0.034160	-0.093045	0.792695	-0.068558	0.064303	1.290801	-0.140311	0.161721	1.044378	-0.080007	0.213173	0.842530
143.0	4.733333	0.000171	-0.000026	0.830191	-0.037119	0.084828	0.824861	-0.033430	0.089928	0.437789	-0.121333	0.143992	0.000000	0.037117	-0.084831	0.835552	0.059452	0.032426	0.451681	-0.013958	0.052218	0.019693	-0.019853	-0.028028	1.065252	-0.008401	-0.026582	1.333426	0.158272	-0.010777	1.434877	0.178737	-0.017706	1.484689	0.005403	-0.108202	1.273704	-0.044836	-0.127627	1.003953	-0.019737	-0.090284	0.796541	-0.060250	0.063752	1.291296	-0.128605	0.160059	1.042855	-0.070828	0.209245	0.837542
144.0	4.766667	0.000173	-0.000026	0.829309	-0.041214	0.084259	0.823564	-0.034689	0.093921	0.435833	-0.132368	0.148123	0.000000	0.041215	-0.084260	0.835081	0.062326	0.039618	0.450531	-0.016968	0.055594	0.023749	-0.017227	-0.029115	1.065879	-0.004960	-0.027610	1.335023	0.162896	-0.007444	1.432570	0.184217	-0.020358	1.482580	0.016479	-0.110447	1.278839	-0.031872	-0.127253	1.009977	-0.003390	-0.090368	0.799802	-0.063858	0.064264	1.293577	-0.126003	0.160494	1.046015	-0.044746	0.206165	0.842066
145.0	4.800000	0.000175	-0.000027	0.831975	-0.042277	0.082675	0.825353	-0.039430	0.099341	0.437651	-0.142293	0.153733	0.000000	0.042284	-0.082673	0.838620	0.052938	0.035714	0.452829	-0.014294	0.048576	0.020616	-0.016232	-0.030881	1.068262	-0.001530	-0.030024	1.338684	0.168974	-0.008470	1.436538	0.193838	-0.023153	1.486528	0.022313	-0.109360	1.280743	-0.021547	-0.123361	1.013481	0.004614	-0.086188	0.801701	-0.062839	0.059574	1.296425	-0.114863	0.160988	1.049253	-0.033733	0.219079	0.840973
146.0	4.833333	0.000174	-0.000026	0.825862	-0.041013	0.078647	0.820723	-0.041596	0.100980	0.435165	-0.142182	0.160761	0.000000	0.041017	-0.078647	0.831027	0.047119	0.043799	0.444426	-0.015597	0.065765	0.018788	-0.015619	-0.030993	1.062334	0.000015	-0.029327	1.332525	0.168041	-0.007597	1.434266	0.191868	-0.021485	1.479349	0.024958	-0.106304	1.275145	-0.020011	-0.128610	1.008903	0.014921	-0.089579	0.796937	-0.061782	0.055507	1.290030	-0.106927	0.158882	1.042734	-0.029041	0.213587	0.834044
147.0	4.866667	0.000172	-0.000024	0.824186	-0.042991	0.077437	0.819167	-0.048938	0.103179	0.432747	-0.149168	0.168625	0.000000	0.042994	-0.077437	0.829232	0.040300	0.041076	0.441379	-0.018926	0.057412	0.018604	-0.010481	-0.032619	1.063294	0.005974	-0.031580	1.333972	0.173793	-0.010674	1.433235	0.195726	-0.026021	1.483133	0.032477	-0.108823	1.278070	-0.007539	-0.132526	1.012623	0.031427	-0.083896	0.805199	-0.056767	0.052573	1.290686	-0.100538	0.157694	1.040438	-0.019873	0.215680	0.834450
148.0	4.900000	0.000177	-0.000027	0.820888	-0.044213	0.076916	0.815994	-0.047462	0.111790	0.430875	-0.155356	0.186278	0.000000	0.044221	-0.076913	0.825807	0.041444	0.033742	0.435036	-0.017147	0.054495	0.010871	-0.008883	-0.035146	1.059786	0.006269	-0.034817	1.331202	0.176629	-0.011273	1.433415	0.200609	-0.026045	1.479726	0.038508	-0.110609	1.273732	0.000874	-0.129851	1.011736	0.041576	-0.085561	0.800273	-0.062003	0.047311	1.291367	-0.100661	0.150076	1.039388	-0.017873	0.207363	0.834123
149.0	4.933333	0.000176	-0.000026	0.822157	-0.044112	0.076117	0.816619	-0.048492	0.109900	0.426301	-0.156441	0.188245	0.000000	0.044119	-0.076114	0.827719	0.041720	0.025346	0.431242	-0.014907	0.049298	0.009932	-0.006063	-0.035126	1.061369	0.009370	-0.035353	1.331908	0.179070	-0.009243	1.432528	0.205616	-0.025725	1.480316	0.045215	-0.111652	1.274132	0.015118	-0.136798	1.008759	0.061565	-0.089119	0.795033	-0.060771	0.045689	1.291369	-0.094688	0.147574	1.037359	-0.003440	0.202921	0.831576
150.0	4.966667	0.000175	-0.000025	0.821205	-0.045201	0.073849	0.814335	-0.050817	0.110214	0.426736	-0.160953	0.188939	0.000000	0.045209	-0.073846	0.828099	0.035013	0.021765	0.431094	-0.022371	0.049541	0.009077	-0.003019	-0.034075	1.060834	0.012218	-0.034760	1.331007	0.181310	-0.009222	1.432813	0.206773	-0.025720	1.479639	0.049451	-0.109308	1.273366	0.020923	-0.136320	1.006931	0.068879	-0.081063	0.794507	-0.058852	0.043896	1.288497	-0.093003	0.142644	1.035055	0.001182	0.203259	0.831757
151.0	5.000000	0.000175	-0.000024	0.816772	-0.044525	0.070795	0.810124	-0.054884	0.109626	0.425422	-0.166010	0.192699	0.000000	0.044533	-0.070791	0.823445	0.028890	0.023818	0.424093	-0.025986	0.057670	0.007447	-0.002912	-0.034091	1.056691	0.009672	-0.033740	1.327522	0.177440	-0.009169	1.432127	0.205026	-0.024364	1.477374	0.049112	-0.105095	1.270131	0.023992	-0.130099	1.003445	0.073320	-0.073507	0.789509	-0.062288	0.041454	1.284458	-0.090060	0.137248	1.032084	0.003994	0.196709	0.826603
152.0	5.033333	0.000175	-0.000023	0.817064	-0.048605	0.070649	0.810131	-0.058398	0.110807	0.424937	-0.171042	0.190971	0.000000	0.048613	-0.070645	0.824023	0.032103	0.023664	0.426315	-0.028690	0.054637	0.005684	-0.000549	-0.033794	1.057467	0.013336	-0.033061	1.328930	0.177966	-0.009050	1.433462	0.203857	-0.025785	1.479441	0.055361	-0.103527	1.272431	0.030509	-0.123800	1.008202	0.084059	-0.066966	0.791997	-0.061110	0.041588	1.285517	-0.089741	0.136275	1.032472	0.006725	0.200133	0.828657
